<?xml version="1.0" standalone="no"?>
<!DOCTYPE svg PUBLIC "-//W3C//DTD SVG 20010904//EN"
 "http://www.w3.org/TR/2001/REC-SVG-20010904/DTD/svg10.dtd">
<svg version="1.0" xmlns="http://www.w3.org/2000/svg"
 width="555.000000pt" height="555.000000pt" viewBox="0 0 555.000000 555.000000"
 preserveAspectRatio="xMidYMid meet">
<metadata>
Created by potrace 1.16, written by Peter Selinger 2001-2019
</metadata>
<g transform="translate(0.000000,555.000000) scale(0.100000,-0.100000)"
fill="#000000" stroke="none">
<path d="M2870 5283 l0 -150 98 -7 c172 -11 364 -49 542 -107 797 -258 1405
-930 1584 -1749 22 -103 31 -163 51 -362 l6 -58 146 0 146 0 -6 118 c-24 419
-181 885 -425 1257 -461 704 -1200 1137 -2049 1201 l-93 7 0 -150z"/>
<path d="M2870 4357 l0 -146 48 -6 c355 -47 620 -169 855 -394 248 -238 397
-530 439 -863 l12 -98 149 0 149 0 -6 68 c-39 388 -182 721 -433 1007 -278
319 -722 543 -1130 572 l-83 6 0 -146z"/>
<path d="M2870 3442 l0 -150 48 -12 c171 -43 332 -204 376 -377 l12 -48 147
-3 147 -3 0 24 c0 51 -42 186 -84 272 -118 237 -333 392 -608 439 l-38 7 0
-149z"/>
<path d="M1499 3170 c-522 -47 -993 -369 -1223 -835 -125 -254 -172 -499 -154
-795 12 -203 64 -390 159 -577 77 -153 154 -258 284 -388 220 -220 492 -364
800 -421 147 -28 432 -26 571 4 615 132 1061 576 1196 1189 29 135 32 453 5
588 -112 548 -496 989 -1011 1160 -128 43 -224 62 -367 75 -125 11 -134 11
-260 0z"/>
</g>
</svg>
